<?xml version="1.0" standalone="no"?>
<!DOCTYPE svg PUBLIC "-//W3C//DTD SVG 20010904//EN"
 "http://www.w3.org/TR/2001/REC-SVG-20010904/DTD/svg10.dtd">
<svg version="1.0" xmlns="http://www.w3.org/2000/svg"
 width="260.000000pt" height="260.000000pt" viewBox="0 0 260.000000 260.000000"
 preserveAspectRatio="xMidYMid meet">
<metadata>
Created by potrace 1.11, written by Peter Selinger 2001-2013
</metadata>
<g transform="translate(0.000000,260.000000) scale(0.100000,-0.100000)"
fill="#000000" stroke="none">
<path d="M606 2339 c-161 -27 -294 -162 -325 -333 -6 -35 -11 -185 -11 -358
l0 -298 100 0 100 0 0 298 c0 350 4 376 74 440 68 63 78 64 686 60 l535 -3 45
-25 c24 -14 58 -44 75 -68 l30 -44 3 -164 3 -164 101 0 100 0 -4 183 c-4 172
-6 185 -31 240 -55 119 -180 217 -305 238 -70 11 -1107 10 -1176 -2z"/>
<path d="M1015 1790 c-16 -9 -73 -40 -125 -68 -52 -28 -144 -77 -204 -110
l-108 -59 1 -146 2 -147 -151 0 -152 0 4 -227 3 -228 31 -66 c55 -116 131
-181 255 -220 54 -17 95 -19 379 -19 175 0 320 -3 322 -7 2 -5 48 -51 103
-103 55 -52 144 -137 198 -189 l97 -94 0 195 0 195 68 5 c134 11 256 82 320
188 60 101 62 116 62 527 l0 373 -240 0 -240 0 0 -210 0 -210 -40 0 -40 0 0
109 c0 62 -4 112 -10 116 -15 9 -412 155 -422 155 -4 0 -8 -85 -8 -190 l0
-190 -35 0 -35 0 -2 318 -3 319 -30 -17z m73 -755 l162 0 0 163 c0 124 3 162
13 162 7 0 46 -13 87 -29 l75 -28 3 -134 3 -134 169 3 170 3 0 210 0 210 76
-3 75 -3 -1 -305 -1 -304 -25 -43 c-14 -24 -44 -56 -66 -71 -40 -26 -48 -27
-185 -30 l-144 -4 3 -104 c2 -57 1 -104 -2 -104 -3 0 -45 47 -94 105 l-88 104
-353 3 -353 3 -43 30 c-26 18 -53 50 -68 80 -24 46 -26 60 -26 180 l0 130 115
5 115 5 0 169 0 169 105 57 105 58 5 -277 5 -276 163 0z"/>
</g>
</svg>
